<?xml version="1.0" encoding="utf-8"?>
<!-- Generator: Adobe Illustrator 23.0.6, SVG Export Plug-In . SVG Version: 6.00 Build 0)  -->
<svg version="1.1" id="Layer_1" xmlns="http://www.w3.org/2000/svg" xmlns:xlink="http://www.w3.org/1999/xlink" x="0px" y="0px"
	 viewBox="0 0 590.7 657.4" style="enable-background:new 0 0 590.7 657.4;" xml:space="preserve">
<style type="text/css">
	.st0{fill:#010202;}
</style>
<g>
	<path class="st0" d="M188.5,525l-4.8-3.5l-2.6,5.4c-4.2,8.7-8.2,16.6-12,24.1c-7.5,14.6-14,26.8-21.3,38.5
		c-6.7,10.8-14.3,23-23.4,30.5c-4.5,3.7-11.4,5.8-19.1,5.8c-2.4,0-4.8-0.2-7.2-0.6c-7.2-1.2-12.1-4.9-14.7-10.8
		c-5.2-11.8-1.5-27.7,8.4-36.8c2.2-2.1,4.7-3.6,7.3-4.7c3.9-1.6,7-4.5,8.7-8.4c1.7-3.9,1.8-8.2,0.2-12.1c-2.4-6.1-8.2-10-14.7-10
		c-2,0-3.9,0.4-5.8,1.1c-6.3,2.5-12,6.1-17.1,10.8c-19.7,18.2-26.5,48.8-16,72.8c6.8,15.7,20.8,26.4,38.4,29.4
		c4.2,0.7,8.4,1.1,12.6,1.1c15.1,0,29-4.6,39.2-13c13.2-10.9,22.2-25.4,30.2-38.3c7.8-12.6,14.7-25.4,22.5-40.7
		c3.5-6.8,7.2-14.2,11-21.9l2-4l-3.8-2.4C200.6,533.5,194.8,529.5,188.5,525z"/>
	<path class="st0" d="M578.6,368.3L578.6,368.3c-7.3-6.9-17.5-11.2-28-11.7c-21.3-1-38.4,13.3-47.2,26.6c-4.8,7.3-2.8,17.1,4.5,21.9
		c2.6,1.7,5.6,2.6,8.7,2.6c5.4,0,10.3-2.7,13.2-7.1c3.8-5.7,10.9-12.4,18.5-12.4c0.2,0,0.5,0,0.7,0c2.9,0.1,5.8,1.3,7.6,3
		c2,1.9,2.3,5.7,2.3,7.7c-0.1,9-3.9,19.8-10.7,30.2c-6.2,9.4-14.5,17.8-24.2,24.3c-14.8,10-31.2,15.7-45.1,15.7
		c-8.1,0-15.3-1.9-21.4-5.7c-5-3.1-8.6-7.4-9.9-12.2c-1.6-5.5-1.3-12.4,1-22.3c3.3-14.2,9.4-27.7,15.9-42.1
		c2.1-4.7,4.3-9.5,6.4-14.5c2.3-5.3,4.5-10.7,6.8-16c2.8-6.6,5.6-13.3,8.4-19.9c0.7-1.6,1.4-3.2,2.1-4.7l0-0.1
		c2.4-5.6,4.9-11.3,7.1-17.4l0.9-2.5c0.9-2.6,1.8-5.1,2.8-7.4l0.1-0.3c6-12.6,1.1-21.4-5.6-25.6c-2.5-1.5-5.4-2.4-8.3-2.4
		c-3.9,0-7.7,1.5-10.6,4.1c-49.3,44.5-96.3,65.6-112.6,72.1c-7.6-4.6-14-11.6-18.8-17.2c-9.4-11-17.8-22.8-24.8-32.9
		c-1.8-2.6-3.6-5.1-5.4-7.7c0.3-0.8,0.6-1.6,0.9-2.3c4.8-12.1,9.8-24.6,11.9-38.5c2.5-16.4,0.4-30.3-6.1-41.5
		c-7.3-12.5-20.6-20.3-34.6-20.3c-3.1,0-6.2,0.4-9.3,1.2c-16.8,4.3-28.7,19.8-29,37.5c-0.2,11.1,3.5,20.8,6.6,28
		c3.1,7,6.9,14.2,11.6,22c4.1,6.7,8.4,13.1,12,18.3c-7.7,19.5-15.6,39.2-23.3,58.2l-8,19.8c-10.6,26.2-23.2,57.3-36.9,88.9l-1.9,4.4
		l3.7,2.8c1.3,1,2.7,2.1,4,3.1c4.9,3.7,9.3,6.8,13.6,9.7l5,3.4l3.2-7.4c0.5-1.1,1-2.2,1.5-3.4c13.9-32,26.6-63.3,37.3-89.7l7.8-19.3
		l0.1-0.2c5.2-12.9,10.5-26.1,15.8-39.4c5.7,8,12.6,17.1,20.1,25.9c8.3,9.7,19.9,21.8,35.6,28.5c3.5,1.5,7.5,1.7,11.1,0.5
		c1.7-0.5,37.9-12.5,84.3-44.7c-0.4,0.9-0.8,1.8-1.2,2.8l-0.6,1.3c-2.2,5.3-4.5,10.6-6.7,15.9c-2,4.6-4.1,9.3-6.1,13.9
		c-6.8,15.1-13.9,30.8-17.8,48c-2.2,9.6-4.7,24-0.6,38.2c3.6,12.4,12,23.2,23.8,30.4c11.1,6.8,23.8,10.3,37.7,10.3
		c20.2,0,43.2-7.7,63.1-21.1c13.1-8.8,24.5-20.3,32.9-33.1c7.2-10.9,15.8-28.1,16-47.4C590.8,386.6,586.6,376,578.6,368.3z
		 M292.5,228.3c2.7,4.6,3.4,11.9,2.1,20.7v0c-0.7,4.5-1.9,9.1-3.3,13.4c-3.5-5.9-6.4-11.3-8.7-16.6c-2.8-6.3-4-10.9-4-14.7
		c0-3.5,2.2-6.5,5.2-7.3c0.5-0.1,0.9-0.2,1.4-0.2C288.3,223.7,291.2,226.1,292.5,228.3z"/>
	<path class="st0" d="M352.2,419.3L352.2,419.3c-3.2-0.8-6.7-1.2-10.2-1.2c-17.6,0-34.1,9.7-45.3,26.6c-4.8,7.3-2.8,17.1,4.5,21.9
		c2.6,1.7,5.6,2.6,8.7,2.6c5.4,0,10.3-2.7,13.2-7.1c4.1-6.2,11.4-12.4,18.6-12.4c1,0,1.9,0.1,2.9,0.3c3.3,0.8,6,2.9,7.1,5.5
		c1.5,3.4,1.5,8.5,0.2,14.4c-5.8,26-30,46.8-57.4,49.6c-16,1.6-32.6-2.1-51-11.4c-3.1-1.6-6.2-3.3-9.3-5.1c-3-1.8-6.1-3.7-9.1-5.6
		c-5.4-3.5-11-7.5-17.2-12.2l-0.5-0.4c-2.6-2-5.4-4.1-8.8-6.7c-2.9-2.3-5.9-4.6-8.8-6.9c-2.8-2.2-5.5-4.3-8.2-6.5l-0.1-0.1
		c-11.2-8.9-22.8-18-34.7-26.7c17.9-35.5,31.9-72,44.3-106.1c11.8-32.4,23.2-65.3,34.2-97.1l9.8-28.4c1.9-5.4,3.7-10.8,5.6-16.2
		c12-3,23.8-7.9,35.2-14.6c24.5-14.4,45.7-36.3,61.3-63.3c10.9-18.9,17.4-36,19.9-52.3c2.9-18.8,0.1-34-8.4-45.2
		C341.5,5.4,330.6,0,318.7,0c-7.8,0-15.5,2.4-22.3,6.8c-7.8,5.2-13.3,11.9-17.5,17.9c-4.5,6.3-8.8,13.2-13.1,21.1
		c-4.6,8.4-9,17.2-13.5,26.9c-3.9,8.4-7.7,17.1-11.5,26.5c-7.4,17.9-14.8,37.4-23.7,62.8c-8.4,0.4-17.4-0.2-27.9-1.9
		c-5.7-0.9-11.6-2.1-17.3-3.2l-0.2,0c-8.9-1.7-18.1-3.5-27.5-4.8c-17.7-2.4-33.4-3.4-48.1-3c-14.4,0.3-31.1,1.9-45.8,10.6
		c-15.7,9.3-25.4,25.9-25.7,44.6c-0.4,18.9,8.5,36.8,23.1,46.6c8.4,5.6,18.8,8.8,29.3,8.8c10,0,19.4-2.7,27.3-7.8
		c3.5-2.3,6-5.9,6.9-10c0.9-4.1,0.1-8.4-2.2-11.9c-2.9-4.5-7.9-7.2-13.3-7.2c-3.1,0-6,0.9-8.6,2.6c-2.7,1.7-6.2,2.7-10,2.7
		c-4.3,0-8.5-1.2-11.7-3.4c-5.7-3.8-9.3-11.5-9.1-19.7c0.1-7.5,3.9-14.2,10.1-17.9c8.5-5,20.2-5.9,30.5-6.2
		c12.9-0.3,26.9,0.6,43.1,2.7c8.5,1.1,17.3,2.8,25.7,4.5c5.7,1.1,12.1,2.3,18.3,3.4c7.9,1.3,15.2,2.1,22.1,2.4l-10.6,30.8
		c-11,31.7-22.3,64.5-34,96.5c-11.7,32.1-24.8,66.2-41.1,99.2c-2.4-1.5-4.9-2.9-7.2-4.3c-13.5-7.7-31.5-16.5-51.4-16.5
		c-2.5,0-5.1,0.1-7.5,0.4c-21,2.4-38.9,15.8-48,35.8c-9,19.9-7.9,42.4,2.9,58.8c9.8,14.9,27,23.5,47.1,23.5c2.7,0,5.5-0.2,8.2-0.5
		c19.7-2.2,37.6-12.5,51.7-29.7c5.3-6.4,10.3-13.6,15.3-21.8c10.4,7.6,20.5,15.7,30.4,23.5l0.1,0.1c4.1,3.2,8.3,6.5,12.5,9.8
		c2.4,1.9,4.7,3.7,7.1,5.5l1.7,1.3c0.7,0.5,1.3,1,2,1.5c1.2,0.9,2.4,1.9,3.6,2.8c0.9,0.7,1.8,1.3,2.6,2l0.6,0.5
		c6.6,4.9,12.6,9.1,18.4,12.7c3.1,2,6.3,3.9,9.5,5.8c3.2,1.8,6.5,3.6,9.8,5.3c19.9,10,38.6,14.8,57.2,14.8c3.5,0,7.1-0.2,10.6-0.5
		c40.6-4.1,76.4-35.3,85.1-74.2c2.8-12.7,2.2-24-2-33.8C375.8,431.5,365.1,422.5,352.2,419.3z M254.5,151.3
		c5.5-15,10.5-27.9,15.5-40.1l0,0c3.7-9,7.3-17.3,11-25.3c4.2-9,8.2-17.2,12.5-24.9c3.7-6.7,7.3-12.6,11.1-17.8
		c2.6-3.6,5.7-7.5,9.2-9.9c1.5-1,3.3-1.5,4.9-1.5c2,0,3.5,0.7,4.6,2.2c3,4,3.9,11.6,2.4,21.3c-1.9,12.4-7.2,25.9-16.1,41.3
		c-12.9,22.3-30.1,40.2-49.9,51.8C258,149.4,256.3,150.4,254.5,151.3z M56.4,486.3c-6.8,0-16-1.6-21-9.2c-4.8-7.3-5-18.4-0.5-28.3
		c4.4-9.7,12.9-16.2,22.8-17.4c1.2-0.1,2.5-0.2,3.8-0.2c12.5,0,25.7,6.6,35.8,12.4c2.6,1.5,5.2,3,7.9,4.7c-4.6,7.5-9,13.9-13.6,19.5
		c-8.9,10.9-19.2,17-30.7,18.3C59.8,486.2,58.3,486.3,56.4,486.3z"/>
</g>
</svg>
